<svg width="35" height="26" viewBox="0 0 35 26" fill="none" xmlns="http://www.w3.org/2000/svg">
<path d="M8.52941 26C6.96078 26 5.62091 25.71 4.5098 25.1301C3.46405 24.5502 2.61438 23.7447 1.96078 22.7138C1.30719 21.7472 0.816994 20.5874 0.490197 19.2342C0.163399 17.8166 0 16.4957 0 15.2714C0 12.0496 0.816994 9.11772 2.45098 6.47583C4.15033 3.76951 6.73203 1.6109 10.1961 0L11.0784 1.73978C9.18301 2.51301 7.51634 3.7373 6.07843 5.41264C4.70588 7.08798 3.88889 8.79554 3.62745 10.5353C3.43137 11.7596 3.46405 12.8872 3.72549 13.9182C5.03268 12.6295 6.69935 11.9851 8.72549 11.9851C10.817 11.9851 12.549 12.5973 13.9216 13.8216C15.2941 15.0458 15.9804 16.7856 15.9804 19.0409C15.9804 21.1028 15.2614 22.7782 13.8235 24.0669C12.3856 25.3556 10.6209 26 8.52941 26ZM27.549 26C25.9804 26 24.6405 25.71 23.5294 25.1301C22.4837 24.5502 21.634 23.7447 20.9804 22.7138C20.3268 21.7472 19.8366 20.5874 19.5098 19.2342C19.183 17.8166 19.0196 16.4957 19.0196 15.2714C19.0196 12.0496 19.8366 9.11772 21.4706 6.47583C23.1699 3.76951 25.7516 1.6109 29.2157 0L30.098 1.73978C28.2026 2.51301 26.5359 3.7373 25.098 5.41264C23.7255 7.08798 22.9085 8.79554 22.6471 10.5353C22.451 11.7596 22.4837 12.8872 22.7451 13.9182C24.0523 12.6295 25.719 11.9851 27.7451 11.9851C29.8366 11.9851 31.5686 12.5973 32.9412 13.8216C34.3137 15.0458 35 16.7856 35 19.0409C35 21.1028 34.281 22.7782 32.8431 24.0669C31.4052 25.3556 29.6405 26 27.549 26Z" fill="#F37121" fill-opacity="0.15"/>
</svg>
